<svg width="16" height="16" viewBox="0 0 16 16" fill="none" xmlns="http://www.w3.org/2000/svg">
<path d="M12.6777 2.75391C12.729 2.75391 12.7792 2.76882 12.8213 2.79688L12.8604 2.8291L13.1709 3.1416C13.2186 3.18986 13.2451 3.25537 13.2451 3.32324C13.245 3.37389 13.2306 3.42316 13.2031 3.46484L13.1709 3.50391L7.54004 9.14551C7.50881 9.17686 7.46934 9.19988 7.42676 9.21191L7.42578 9.21289L6.64941 9.47363C6.63263 9.47843 6.61458 9.47891 6.59766 9.47461C6.58054 9.47024 6.56525 9.4607 6.55273 9.44824C6.54016 9.43567 6.53074 9.41957 6.52637 9.40234C6.5222 9.38562 6.52264 9.36814 6.52734 9.35156L6.78809 8.57422V8.57324C6.80012 8.53066 6.82314 8.49119 6.85449 8.45996L12.4961 2.8291C12.5444 2.78102 12.6096 2.75398 12.6777 2.75391ZM14.0137 1.52344C14.0783 1.52501 14.1424 1.53957 14.2012 1.56641C14.2598 1.59321 14.3121 1.63206 14.3555 1.67969C14.5282 1.86879 14.5124 2.16457 14.3301 2.34668L13.9531 2.72168C13.9321 2.74276 13.9073 2.76004 13.8799 2.77148C13.8525 2.78288 13.8227 2.78901 13.793 2.78906C13.7633 2.78906 13.7335 2.78281 13.7061 2.77148C13.6785 2.76003 13.6529 2.74283 13.6318 2.72168L13.2773 2.36816C13.2349 2.3257 13.2109 2.26802 13.2109 2.20801C13.2109 2.16293 13.2244 2.11899 13.249 2.08203L13.2773 2.04785L13.6641 1.66309C13.7098 1.61749 13.7643 1.5816 13.8242 1.55762C13.8843 1.53363 13.949 1.52188 14.0137 1.52344Z" fill="black" stroke="#4C4850" stroke-width="0.046875"/>
<path d="M12.0731 6.05188L8.26406 9.86844C8.11684 10.016 7.9359 10.1255 7.73688 10.1875L6.9275 10.4584C6.73542 10.5127 6.53234 10.5147 6.3392 10.4644C6.14606 10.414 5.96985 10.313 5.82871 10.1719C5.68758 10.0308 5.58662 9.85456 5.53626 9.66142C5.4859 9.46828 5.48794 9.26521 5.54219 9.07312L5.81313 8.26375C5.87492 8.06478 5.98421 7.88385 6.13156 7.73656L9.94812 3.92688C9.98311 3.89193 10.0069 3.8474 10.0166 3.7989C10.0263 3.75041 10.0214 3.70014 10.0025 3.65445C9.98357 3.60875 9.95154 3.56969 9.91044 3.5422C9.86934 3.51471 9.82101 3.50002 9.77156 3.5H3.25C2.78587 3.5 2.34075 3.68437 2.01256 4.01256C1.68437 4.34075 1.5 4.78587 1.5 5.25V12.75C1.5 13.2141 1.68437 13.6592 2.01256 13.9874C2.34075 14.3156 2.78587 14.5 3.25 14.5H10.75C11.2141 14.5 11.6592 14.3156 11.9874 13.9874C12.3156 13.6592 12.5 13.2141 12.5 12.75V6.22844C12.5 6.17899 12.4853 6.13066 12.4578 6.08956C12.4303 6.04846 12.3912 6.01643 12.3456 5.99753C12.2999 5.97864 12.2496 5.97371 12.2011 5.98338C12.1526 5.99306 12.1081 6.01689 12.0731 6.05188Z" fill="black"/>
</svg>
